<svg width="26" height="22" viewBox="0 0 26 22" fill="none" xmlns="http://www.w3.org/2000/svg">
<path d="M24.069 2.01009C24.069 2.01009 22.0448 3.20594 20.9191 3.54489C20.315 2.85023 19.512 2.35787 18.619 2.1344C17.7259 1.91094 16.7857 1.96715 15.9256 2.29543C15.0655 2.62372 14.3269 3.20824 13.8099 3.96993C13.2928 4.73163 13.0222 5.63375 13.0345 6.5543V7.55743C11.2716 7.60314 9.52479 7.21216 7.94961 6.41932C6.37442 5.62647 5.01976 4.45637 4.00627 3.01323C4.00627 3.01323 -0.00627232 12.0415 9.02195 16.054C6.95602 17.4563 4.49496 18.1595 2 18.0603C11.0282 23.076 22.0627 18.0603 22.0627 6.5242C22.0618 6.24478 22.0349 5.96605 21.9825 5.6916C23.0063 4.68193 24.069 2.01009 24.069 2.01009Z" stroke="white" stroke-width="2.5" stroke-linecap="round" stroke-linejoin="round"/>
</svg>
