<svg width="40" height="48" viewBox="0 0 40 48" fill="none" xmlns="http://www.w3.org/2000/svg">
<path d="M17.1321 37C16.9263 37 16.7416 36.8739 16.6665 36.6823L7.26721 12.6823C7.13877 12.3544 7.38059 12 7.73278 12H13.6631C13.8705 12 14.0564 12.1281 14.1303 12.3219L22.0009 32.9647C22.1257 33.292 21.884 33.6429 21.5337 33.6429H18.8654C18.5135 33.6429 18.2717 33.2889 18.3996 32.961L26.4577 12.3182C26.5326 12.1263 26.7175 12 26.9234 12H32.2663C32.6187 12 32.8606 12.3548 32.7317 12.6829L23.3009 36.6829C23.2258 36.8742 23.0411 37 22.8356 37H17.1321Z" fill="#1F1F1F"/>
<path fill-rule="evenodd" clip-rule="evenodd" d="M35 0H5C2.23858 0 0 2.23857 0 5V43C0 45.7614 2.23858 48 5 48H35C37.7614 48 40 45.7614 40 43C40 42.4477 39.5523 42 39 42H37C36.4477 42 36 42.4477 36 43C36 43.5523 35.5523 44 35 44H5C4.44772 44 4 43.5523 4 43V5C4 4.44771 4.44772 4 5 4H35C35.5523 4 36 4.44772 36 5C36 5.55228 36.4477 6 37 6H39C39.5523 6 40 5.55228 40 5C40 2.23858 37.7614 0 35 0Z" fill="#1F1F1F"/>
</svg>
